<svg width="24" height="25" viewBox="0 0 24 25" fill="none" xmlns="http://www.w3.org/2000/svg">
<g id="menu-06">
<g id="elements">
<path id="Vector 4575 (Stroke)" fill-rule="evenodd" clip-rule="evenodd" d="M3 5.82148C3 5.27907 3.44772 4.83936 4 4.83936L20 4.83936C20.5523 4.83936 21 5.27907 21 5.82148C21 6.36389 20.5523 6.8036 20 6.8036L4 6.8036C3.44772 6.8036 3 6.36389 3 5.82148Z" fill="black"/>
<path id="Vector 4576 (Stroke)" fill-rule="evenodd" clip-rule="evenodd" d="M11.5 13.6786L20 13.6786C20.5523 13.6786 21 13.2389 21 12.6965C21 12.1541 20.5523 11.7144 20 11.7144L4 11.7144C3.44772 11.7144 3 12.1541 3 12.6965C3 13.2389 3.44771 13.6786 4 13.6786L7.5 13.6786L8.7 15.25C8.88885 15.4973 9.18524 15.6428 9.5 15.6428C9.81476 15.6428 10.1111 15.4973 10.3 15.25L11.5 13.6786Z" fill="black"/>
<path id="Vector 4577 (Stroke)" fill-rule="evenodd" clip-rule="evenodd" d="M3 19.571C3 19.0286 3.44772 18.5889 4 18.5889L20 18.5889C20.5523 18.5889 21 19.0286 21 19.571C21 20.1134 20.5523 20.5531 20 20.5531L4 20.5531C3.44772 20.5531 3 20.1134 3 19.571Z" fill="black"/>
</g>
</g>
</svg>
